<?xml version="1.0" encoding="utf-8"?>
<!-- Generator: Adobe Illustrator 26.0.1, SVG Export Plug-In . SVG Version: 6.00 Build 0)  -->
<svg version="1.1" id="Capa_1" xmlns="http://www.w3.org/2000/svg" xmlns:xlink="http://www.w3.org/1999/xlink" x="0px" y="0px"
	 viewBox="0 0 900 650" style="enable-background:new 0 0 900 650;" xml:space="preserve">
<style type="text/css">
	.st0{fill:#FEFEFE;}
	.st1{fill:#FEFBF4;}
	.st2{fill:#FDFBF7;}
	.st3{fill:#FEC421;}
	.st4{fill:#D69C20;}
	.st5{fill:#CA9216;}
	.st6{fill:#FBBA26;}
	.st7{fill:#D89E22;}
	.st8{fill:#ECB02B;}
	.st9{fill:#D89F23;}
	.st10{fill:#ECAF2A;}
	.st11{fill:#DEA52C;}
	.st12{fill:#E5AA29;}
	.st13{fill:#DFA72F;}
	.st14{fill:#002B89;}
	.st15{fill:#F9B61E;}
	.st16{fill:#009CE0;}
	.st17{fill:#009CDF;}
	.st18{fill:#001A6A;}
	.st19{fill:#FAC325;}
	.st20{fill:#FAC124;}
	.st21{fill:#FCC323;}
	.st22{fill:#FCC322;}
</style>
<g>
	<path class="st0" d="M780.95,250.08c22,0,43.99,0.05,65.99-0.07c2.5-0.01,3.07,0.57,3.06,3.06c-0.09,47.61-0.09,95.22,0,142.83
		c0,2.5-0.56,3.07-3.06,3.06c-27.83-0.1-55.65-0.06-83.48-0.06c-235.95,0-471.9-0.01-707.85,0.09c-3.75,0-4.63-0.84-4.6-4.59
		c0.2-22.14,0.1-44.28,0.1-66.42c0.51-0.33,0.98-0.28,1.4,0.17c1.66,3.33,1.56,7.05,2.43,10.56c1.01,6.61,3.28,12.78,6.61,18.56
		c1.92,3.97,4.08,7.79,6.98,11.14c1.34,2.38,3.34,4.18,5.28,6.04c3.71,3.79,7.84,7.07,12.3,9.94c8.62,5.29,17.71,9.29,27.92,10.3
		c3.59,1.09,7.28,0.78,10.93,0.78c218.07,0.01,436.13,0,654.19,0c10.57-0.72,20.5-3.67,29.77-8.8c1.6-0.88,3.17-1.8,4.82-2.59
		c7.54-3.38,11.71-10.51,17.53-15.8c3.28-3.72,5.32-8.26,8.07-12.33c3.63-7.24,5.84-14.89,6.69-22.93c2.84-25.67-5.64-47.03-25-63.9
		c-10.08-8.78-22.01-14.1-35.38-15.94c-1.65-0.23-3.27-0.62-4.6-1.72C780.64,251.05,780.61,250.58,780.95,250.08z"/>
	<path class="st0" d="M51.1,318c0-21.56,0.06-43.12-0.08-64.69c-0.02-2.76,0.55-3.33,3.32-3.31c21.58,0.14,43.17,0.08,64.75,0.08
		c0.35,0.47,0.33,0.92-0.05,1.36c-1.33,1.11-2.95,1.46-4.59,1.73c-26.53,4.39-44.85,19.28-55.83,43.57
		c-1.79,3.97-2.67,8.18-3.66,12.37c-0.93,2.9-0.39,6.22-2.46,8.8C52.06,318.31,51.59,318.34,51.1,318z"/>
	<path class="st1" d="M119.08,250.98c0-0.3,0.01-0.6,0.01-0.89c220.62,0,441.24,0,661.86,0c0,0.29,0,0.59,0.01,0.88
		c-1.34,1.58-3.22,1.58-5.04,1.69c-1.83,0.11-3.66,0.06-5.5,0.06c-213.6,0-427.2,0.01-640.79-0.04
		C126.08,252.67,122.24,253.7,119.08,250.98z"/>
	<path class="st2" d="M51.1,318c0.29-0.01,0.58-0.01,0.87-0.01c2.22,3.34,2.26,6.68-0.04,10l-0.41,0l-0.41-0.01
		C51.1,324.66,51.1,321.33,51.1,318z"/>
	<path class="st3" d="M119.08,250.98c34.13,0.05,68.26,0.14,102.4,0.14c185.16,0.02,370.33,0.01,555.49,0c1.33,0,2.66-0.1,3.99-0.16
		c20.66,2.55,38.09,11.16,51.17,27.63c12.11,15.24,17.04,32.75,15.7,52.08c-0.05,0.79-0.44,1.56-0.68,2.34
		c-1.49,7.87-3.58,15.54-7.35,22.67c-2.4,3.85-4.97,7.6-7.29,11.51c-5.79,6.71-12.06,12.89-19.63,17.63
		c-4.01,2.21-7.95,4.51-12.27,6.11c-3.73,1.38-7.44,2.36-11.45,1.5c-3.11,0.78-6.25,0.89-9.43,0.89
		c-219.78-0.01-439.55,0.01-659.33-0.04c-15.07,0-28.12-5.88-40.06-14.69c-5.28-3.9-9.56-8.73-13.77-13.65
		c-2.25-1.82-3.63-4.28-4.95-6.79c-1.61-2.84-3.06-5.74-3.82-8.95c-5.06-13.14-5.72-26.69-3.79-40.48
		c4.06-21.13,16.1-36.59,34.13-47.74C97.62,255.14,108.2,252.58,119.08,250.98z"/>
	<path class="st4" d="M791.04,390.98c4.39,2.24,7.95-0.75,11.66-2.09c3.54-1.27,6.82-3.3,10.21-5c1.07-0.68,1.87-0.72,2,0.84
		c-10.35,6.79-21.62,10.95-34,12.02c-2.12-0.71-4.3-0.34-6.44-0.34c-216.33-0.02-432.65-0.03-648.98,0.05
		c-4.49,0-8.87-1.29-13.35-0.71c-9.85-1.5-19-4.78-27.1-10.72c0.13-2.07,1.47-1.68,2.77-1.37c13.15,7.36,27.29,9.39,42.27,9.37
		c216.26-0.19,432.52-0.13,648.79-0.11C783.05,392.93,787.18,392.87,791.04,390.98z"/>
	<path class="st5" d="M112.13,395.76c1.76-1.49,3.93-1.13,5.71-0.61c2.97,0.86,5.92,0.75,8.9,0.75
		c215.97,0.01,431.94,0.01,647.9,0.04c2.08,0,4.34-0.75,6.26,0.81c-28.81,0.07-57.61,0.2-86.42,0.21c-89.43,0.03-178.86,0-268.29,0
		c-84.43,0-168.87-0.01-253.3-0.01c-17.15,0-34.31-0.03-51.46,0.01C118.26,396.97,115.15,396.76,112.13,395.76z"/>
	<path class="st6" d="M54.01,308.73c-0.33,13.99-0.15,27.92,5.08,41.23c-3.8-1.57-3.17-5.5-4.43-8.41c-0.35-0.8,0.3-1.99-0.9-2.52
		c-0.61-3.68-1.22-7.36-1.83-11.04c0.01-3.33,0.03-6.67,0.04-10C52.9,314.96,52.52,311.64,54.01,308.73z"/>
	<path class="st7" d="M814.9,384.74c-0.67-0.28-1.33-0.56-2-0.84c6.55-5.44,13.5-10.43,19.03-17c0.71,0.74,0.54,1.53,0.14,2.33
		C826.36,374.41,822.38,381.51,814.9,384.74z"/>
	<path class="st8" d="M838.94,355.95c3.55-7.35,5.62-15.24,8.22-22.93c-0.44,8.58-2.94,16.55-7.18,24
		C839.39,356.89,839.04,356.53,838.94,355.95z"/>
	<path class="st9" d="M87.06,383.92c-0.87,0.03-1.61,0.27-2.03,1.11c-4.43-2.81-8.65-5.87-12-9.97c-0.42-0.42-0.44-0.85-0.07-1.31
		c0.14-0.07,0.34-0.24,0.43-0.19C78.71,376.02,83.26,379.49,87.06,383.92z"/>
	<path class="st10" d="M53.76,339.04c2.74,3.18,1.99,8.05,5.33,10.93c1,2.66,2,5.32,3.01,7.98c-0.43,0.58-0.91,0.63-1.44,0.15
		C57,352.24,54.78,345.85,53.76,339.04z"/>
	<path class="st11" d="M838.94,355.95c0.35,0.35,0.69,0.71,1.04,1.06c-2.23,4.33-4.65,8.55-7.91,12.22
		c-0.04-0.78-0.09-1.55-0.14-2.33C833.56,362.8,836.27,359.39,838.94,355.95z"/>
	<path class="st12" d="M60.65,358.1c0.48-0.05,0.96-0.1,1.44-0.15c1.33,1.67,2.66,3.33,3.99,5c0.62,2.27,4.62,2.91,3.04,6.25
		c-0.49,0.29-0.96,0.25-1.4-0.12C64.72,365.84,62.39,362.15,60.65,358.1z"/>
	<path class="st13" d="M67.73,369.08c0.46-0.05,0.91-0.09,1.37-0.14c2.13,1.02,4.2,2.08,4.02,4.96c-0.03,0.39-0.05,0.78-0.08,1.17
		C70.97,373.34,69.08,371.45,67.73,369.08z"/>
	<path class="st14" d="M315.96,354.07c-3.82-0.02-7.67-0.3-11.47,0.02c-4.29,0.35-5.14-1.44-4.5-5.26
		c2.27-13.74,4.38-27.5,6.54-41.26c0.87-5.57,1.73-11.14,2.57-16.71c0.37-2.46,1.11-4.77,4.1-4.74c9.8,0.12,19.66-0.89,29.39,0.49
		c12.05,1.71,15.4,6.16,15.57,19.3c0.51,1.25,0.51,2.22-1.23,2.25c-2.84-2.58-6.27-3.59-10.02-3.67c-5.3-0.11-10.61,0.1-15.9-0.09
		c-3.87-0.14-5.8,1.45-6.33,5.27c-0.92,6.55-2.09,13.07-2.8,19.65c-1.51,6.47-2.14,13.09-3.41,19.6
		C318.08,350.85,317.96,352.91,315.96,354.07z"/>
	<path class="st15" d="M73.11,373.9c-1.34-1.65-2.68-3.31-4.02-4.96c0.15-2.58-3.15-3.42-3.01-5.99c5.33,3.97,8.73,9.81,14.16,13.84
		c12.2,9.07,25.36,15.1,40.76,15.1c219.39,0.03,438.78,0.01,658.17,0.09c4.02,0,7.88-0.99,11.86-1.01
		c-1.54,3.24-4.89,1.92-7.36,2.82c-1.33,0.48-2.97,0.12-4.47,0.12c-219.44,0-438.87,0.03-658.31-0.08
		c-12.07-0.01-23.68-2.81-33.84-9.91C82.41,380.58,77.76,377.24,73.11,373.9z"/>
	<path class="st16" d="M315.96,354.07c1.04-5.99,2.14-11.97,3.08-17.97c0.38-2.46,0.78-4.87,2.11-7.02
		c2.03-2.06,4.65-1.21,7.04-1.41c9.02-0.76,17.78-1.92,23.76-10.07c2.18-2.97,2.38-6.9,5.18-9.45c0.34-0.75,0.69-1.49,1.03-2.24
		c3.86,1.78,5.56,5.01,5.93,9.04c1.42,15.39-7.44,25.76-22.79,26.1c-4.63,0.1-6.66,1.77-7.03,6.19c-0.23,2.79-0.86,5.55-1.21,8.33
		c-0.82,6.68-1.08,6.95-7.55,6.97c-0.33,0-0.66,0-1,0C315.52,362.54,315.52,362.54,315.96,354.07z"/>
	<path class="st16" d="M512.78,351.94c-6.35,0-6.54-0.22-5.63-5.84c1.94-11.92,3.95-23.83,5.76-35.76c0.38-2.49,1.15-4.27,3.83-4.21
		c6.79,0.17,13.62-0.76,20.37,0.79c6.33,1.46,9.03,4.7,9.04,11.13c0.01,11.55-6.85,18.54-18.51,18.87
		c-7.71,0.22-7.75,0.21-8.63,8.16C518.55,349.26,518.23,353.41,512.78,351.94z"/>
	<path class="st14" d="M396.06,351.94c-6.41,0.01-6.32,0.03-5.38-5.78c1.85-11.48,3.74-22.95,5.27-34.48
		c0.55-4.17,2.2-5.77,6.41-5.46c5.96,0.45,11.99-0.5,17.93,0.73c6.21,1.28,9.18,4.89,9.16,11.14c-0.05,11.35-6.71,18.18-18.25,18.72
		c-8,0.37-8.1,0.36-9.08,8.92C401.63,349.86,400.78,353.14,396.06,351.94z"/>
	<path class="st16" d="M572.46,351.99c-1.93-0.41-4.38,0.98-5.55-1.99c-0.47-1.19-1.28,0.1-1.89,0.37
		c-9.34,4.14-16.72,2.36-20.01-4.84c-3.71-8.11,1.01-19.82,9.65-23.34c4.73-1.93,9.69-2.27,14.38,0.32
		c1.22,0.67,1.65,1.21,3.13-0.11c2.37-2.12,5.68-0.99,8.59-0.72c1.58,0.15,1.41,1.66,1.23,2.79c-1.29,8.33-2.62,16.66-3.97,24.99
		C577.45,353.04,574.54,351.6,572.46,351.99z"/>
	<path class="st14" d="M454.97,351.9c-1.35-0.33-3.76,1.11-4.39-2.09c-0.23-1.13-1.37-0.11-1.94,0.22
		c-6.03,3.45-12.24,4.15-17.59-0.71c-4.99-4.54-5.03-10.68-2.71-16.65c2.68-6.9,7.69-11.09,15.29-11.74c0.66-0.06,1.39-0.19,1.99,0
		c5.41,1.74,10.87,1.64,16.4,0.7c2.61-0.44,3.55,0.8,3.11,3.47c-1.29,7.7-2.55,15.4-3.56,23.13
		C461.02,352.43,458.2,352.03,454.97,351.9z"/>
	<path class="st14" d="M485.3,338.32c3.43-5.01,6.49-9.51,9.6-13.97c1.63-2.34,9-3.88,11.27-2.47c1.57,0.98,0.64,2,0.02,2.9
		c-8.31,12.04-16.45,24.19-25.08,35.99c-2.43,3.32-6.79,1.39-10.31,1.24c-1.01-0.04-0.91-1.2-0.53-2c0.28-0.6,0.59-1.25,1.07-1.68
		c7.3-6.47,6.61-13.8,2.71-21.75c-1.67-3.4-2.52-7.19-3.85-10.76c-1.01-2.74-0.9-4.12,2.74-4.33c5.21-0.31,8.56,0.77,9.29,6.67
		C482.62,331.39,484.1,334.48,485.3,338.32z"/>
	<path class="st17" d="M587.73,351.95c-3.34,0.57-4.77-0.35-3.95-4.8c2.29-12.34,4.23-24.76,5.88-37.2
		c0.79-5.96,4.97-3.63,7.91-3.75c4.04-0.16,2.61,3.19,2.32,5.12c-1.85,12.42-4.05,24.79-5.82,37.23
		C593.49,352.69,590.79,351.87,587.73,351.95z"/>
	<path class="st18" d="M357.12,308.14c-2.55,13.33-11.34,20.03-27.02,20.62c-2.99,0.11-5.97,0.21-8.96,0.31
		c-0.53-8.23,1.71-16.1,3.14-24.07c0.23-1.27,1.35-1.95,2.61-1.91c8.92,0.3,17.91-1.09,26.77,0.99
		C355.86,304.6,357.25,305.69,357.12,308.14z"/>
	<path class="st19" d="M524.79,327.61c-1.37,0.06-3.73-0.11-2.61-2.36c1.57-3.19-2.01-9.19,4.73-9.52c3.28-0.16,6.96-0.05,7.03,4.79
		C534,325.01,530.81,327.54,524.79,327.61z"/>
	<path class="st20" d="M408.26,327.69c-1.65-0.02-4.16,0.01-2.93-2.34c1.72-3.28-2.12-9.69,5.11-9.8c3.3-0.05,6.9,0.18,6.69,5.16
		C416.92,325.44,414.11,327.75,408.26,327.69z"/>
	<path class="st21" d="M561.1,344.02c-4.38-0.04-6.49-2.12-6.38-6.32c0.12-4.68,3.91-8.51,8.51-8.6c3.87-0.07,6.68,2.56,6.76,6.34
		C570.07,340.3,566.18,344.06,561.1,344.02z"/>
	<path class="st22" d="M446.63,329.08c3.99,0.02,6.56,2.59,6.54,6.54c-0.02,4.99-3.91,8.67-9.02,8.52c-3.94-0.12-6.23-1.96-6.27-6.1
		C437.84,333.1,441.77,329.06,446.63,329.08z"/>
</g>
</svg>
